<svg xmlns="http://www.w3.org/2000/svg" width="48" height="48" viewBox="0 0 48 48"><g class="nc-icon-wrapper" stroke-linecap="square" stroke-linejoin="miter" stroke-width="2" fill="none" stroke="#212121" stroke-miterlimit="10"><polyline points="2 24 15 24 20 17 28 31 33 24 46 24" stroke="#212121"></polyline> <path d="M44.822,18A11.942,11.942,0,0,0,45,16C45,9.4,39.845,4,33.545,4A11.111,11.111,0,0,0,24,9.4,11.111,11.111,0,0,0,14.455,4C8.155,4,3,9.4,3,16a11.942,11.942,0,0,0,.178,2"></path> <path d="M9.079,30A108.926,108.926,0,0,0,24,46,108.926,108.926,0,0,0,38.921,30"></path></g></svg>