<svg id="Ebene_1" data-name="Ebene 1" xmlns="http://www.w3.org/2000/svg" viewBox="0 0 239.64 153.94"><defs><style>.cls-1{fill:#0061a1;}.cls-2{fill:#0061a0;}</style></defs><path class="cls-1" d="M146.68,22.5C146.18,9,134,0,117.88,0H94.28V45h26.1c14.3,0,26.3-7.3,26.3-21.7Zm-31.9,16.9h-5.5V22.5h0V5.7h5c10.5,0,16.2,7.3,16.2,15.8v1C130.18,31.2,125.58,39.4,114.78,39.4Z"/><path class="cls-1" d="M183.48,18.1,175.38,0h-14.9l-7.4,18.1-11.2,27h7.8l5.2-13h18.2l5.81,13h16.69Zm-26.1,7.8,3-7.8,3-7.9h.2l3.5,7.9,3.5,7.8Z"/><path class="cls-1" d="M92.28,13.4C91.68,4.8,83.68,0,72.58,0H48.08V45.1H63V26.9H75c8.6,0,17.3-3.1,17.3-12.5Zm-15.5.4c0,4.2-2.8,7-8.5,7H63V6h4.8c5.4,0,8.8,2.9,9,7.4Z"/><rect class="cls-1" x="47.78" y="48.8" width="148.1" height="3.9"/><path class="cls-1" d="M195.89,73.9H47.78a49.44,49.44,0,0,0,8.4,20.4h0a60.89,60.89,0,0,0,6.6,7.7,58.07,58.07,0,0,0,6.5,5.6c2.2,1.6,4.6,3.2,7,4.6,12.1,7,27.4,11.5,45.2,13,18.1-1.5,33.6-6,45.8-13h0a63.65,63.65,0,0,0,6.9-4.6h.1a69.81,69.81,0,0,0,6.5-5.5,62.59,62.59,0,0,0,6.7-7.8h0A49,49,0,0,0,195.89,73.9ZM82,110.8a48.28,48.28,0,0,1-5.9-3.2,68.58,68.58,0,0,1-7.7-5.6h-.1a55.31,55.31,0,0,1-7.6-7.7h0a38.14,38.14,0,0,1-8.1-16.5h27.7c.3,6.1,2.7,11.9,5.3,16.5h0a34.94,34.94,0,0,0,4.8,6.8l-.8.9c-1.7,1.8-3.5,3.4-5.3,5.6A26.18,26.18,0,0,0,82,110.8Zm3.6,1.6c.1-.1.1-.1.1-.2a35,35,0,0,1,3.9-4.6h0a46.4,46.4,0,0,1,3.6-3.2,30,30,0,0,0,3,3.2c1.7,1.6,3.6,3.2,5.4,4.6,3.8,3,7.6,5.6,10.3,7.8C107.18,120.3,92.68,115.8,85.58,112.4Zm33.9-18.1h0v26c-3.7-2.3-7.8-5.1-11.7-8.1h0c-1.9-1.5-3.9-3-5.7-4.6a78.17,78.17,0,0,1-5.8-5.4l.2-.1a39.76,39.76,0,0,1,19-7.7h.1c1.3-.2,2.6-.3,4-.5v.4Zm0-4.3c-8.3.9-13.7,2.5-17.7,4.3h0a54.31,54.31,0,0,0-8.1,4.6,23.85,23.85,0,0,1-3.8-4.6h0a38.46,38.46,0,0,1-5.5-16.5h35V90Zm4.3-12.2h35a40.68,40.68,0,0,1-5.4,16.5h-.1a23.85,23.85,0,0,1-3.8,4.6,54.31,54.31,0,0,0-8.1-4.6h-.1c-3.9-1.8-9.3-3.3-17.5-4.3Zm-.1,34.4V94.3h0v-.4c1.4.1,2.7.3,3.9.5H128a39.15,39.15,0,0,1,18.7,7.7l.2.1a75.13,75.13,0,0,1-5.81,5.4c-1.8,1.6-3.69,3.1-5.69,4.6-3.9,3-8,5.8-11.6,8.1v-8.1Zm7.5,7.8c2.7-2.2,6.6-4.8,10.4-7.8,1.81-1.4,3.7-3,5.41-4.6a32.15,32.15,0,0,0,3-3.2,46.41,46.41,0,0,1,3.59,3.2,43.15,43.15,0,0,1,3.91,4.6c.09.1.09.1.09.2C150.38,115.8,136,120.3,131.18,120Zm43.6-17.9a59.8,59.8,0,0,1-7.7,5.5h0a48.28,48.28,0,0,1-5.9,3.2,35.08,35.08,0,0,0-2.3-3.2h0c-1.8-2.2-3.6-3.8-5.3-5.6l-.8-.8a39.25,39.25,0,0,0,4.7-6.8h.1a38.63,38.63,0,0,0,5.3-16.5h27.6a36.39,36.39,0,0,1-8,16.5h0A93.24,93.24,0,0,1,174.78,102.1Z"/><path class="cls-1" d="M48.38,58.8h2.7A6.15,6.15,0,0,1,53,59a1.51,1.51,0,0,1,1.1.7,2.46,2.46,0,0,1,.5,1.5,2.3,2.3,0,0,1-.4,1.4,2,2,0,0,1-1,.8,4.42,4.42,0,0,1-2,.2h-.7v2.8h-2.1Zm2.1,1.2v2.3h.6a1.44,1.44,0,0,0,1.1-.3.78.78,0,0,0,.2-.8,1.45,1.45,0,0,0-.2-.7.78.78,0,0,0-.4-.4,1.7,1.7,0,0,0-.7-.1Z"/><path class="cls-1" d="M57.18,62.5l-1.8-.2a2,2,0,0,1,.9-1.3,4.14,4.14,0,0,1,1.9-.5,4.53,4.53,0,0,1,1.6.3,1.21,1.21,0,0,1,.7.7,5,5,0,0,1,.2,1.2V65a6.15,6.15,0,0,0,.1,1.3H59a1.08,1.08,0,0,1-.2-.8,2.06,2.06,0,0,1-1.9,1,2,2,0,0,1-1.3-.4,1.61,1.61,0,0,1-.5-1.1,1.76,1.76,0,0,1,.8-1.5,6.71,6.71,0,0,1,2.8-.6v-.2a2.2,2.2,0,0,0-.1-.8c-.1-.2-.3-.2-.5-.2-.6,0-.9.3-.9.8m1.5,1.2a2.66,2.66,0,0,0-1.2.3.91.91,0,0,0-.4.8c0,.5.2.7.6.7a.71.71,0,0,0,.6-.3,2.66,2.66,0,0,0,.3-1.2v-.3Z"/><path class="cls-1" d="M62,60.8h1.7v1.4a1.66,1.66,0,0,1,1.6-1.4h.3v1.6h-.3c-.9,0-1.4.6-1.4,1.7v2.4H62Z"/><path class="cls-1" d="M71.58,63.8H68v.3a3,3,0,0,0,.2,1,.91.91,0,0,0,.7.3.92.92,0,0,0,1-.9v-.1l1.7.1a2.42,2.42,0,0,1-2.8,2,2.35,2.35,0,0,1-2.1-.8,2.7,2.7,0,0,1-.7-2.1,3,3,0,0,1,.8-2.3,3.23,3.23,0,0,1,2.1-.8,3.06,3.06,0,0,1,2,.7,4.1,4.1,0,0,1,.7,2.6m-1.8-.9v-.2c0-.8-.3-1.1-.9-1.1s-.9.4-.9,1.3Z"/><path class="cls-1" d="M72.68,60.8h1.8v.7a1.77,1.77,0,0,1,1.7-.9,3.59,3.59,0,0,1,1.1.2,1.17,1.17,0,0,1,.6.6,4.87,4.87,0,0,1,.1,1.2v3.7h-1.9V62.6a1,1,0,0,0-.2-.7.75.75,0,0,0-.5-.1.91.91,0,0,0-.7.3,3.55,3.55,0,0,0-.2,1v3.3h-1.9V60.8Z"/><path class="cls-1" d="M79.58,59h1.9v1.8h1.3V62h-1.3v2.9c0,.1.1.2.2.3a1.27,1.27,0,0,0,.6.1h.5v1.2a4.87,4.87,0,0,1-1.2.1,2.77,2.77,0,0,1-1.3-.3,1.06,1.06,0,0,1-.6-.7,5.7,5.7,0,0,1-.1-1.3V62h-.8V60.8h.8Z"/><path class="cls-1" d="M89,63.8h-3.6v.3a1.69,1.69,0,0,0,.3,1,.91.91,0,0,0,.7.3.92.92,0,0,0,1-.9v-.1l1.7.1a2.94,2.94,0,0,1-4.8,1.2,2.74,2.74,0,0,1-.7-2.1,3,3,0,0,1,.8-2.3,3.23,3.23,0,0,1,2.1-.8,3.06,3.06,0,0,1,2,.7,5.75,5.75,0,0,1,.5,2.6m-1.8-.9v-.2c0-.8-.3-1.1-.9-1.1s-.9.4-.9,1.3Z"/><path class="cls-1" d="M90.08,60.8h1.7v1.4a1.68,1.68,0,0,1,1.7-1.4h.3v1.6h-.3c-1,0-1.4.6-1.4,1.7v2.4h-2Z"/><path class="cls-1" d="M96.28,62.5l-1.8-.2a2,2,0,0,1,.9-1.3,4.14,4.14,0,0,1,1.9-.5,3.65,3.65,0,0,1,1.5.3,1.25,1.25,0,0,1,.71.7,5.57,5.57,0,0,1,.2,1.2V65a6.82,6.82,0,0,0,.09,1.3H98a2.77,2.77,0,0,1-.1-.9,2.26,2.26,0,0,1-3.2.6,1.66,1.66,0,0,1-.5-1.2,1.76,1.76,0,0,1,.8-1.5,5.42,5.42,0,0,1,2.79-.6v-.2a2.43,2.43,0,0,0-.09-.8c-.1-.2-.3-.2-.5-.2-.61.1-.81.4-.91,1m1.5,1.2a2.66,2.66,0,0,0-1.2.3.91.91,0,0,0-.4.8c0,.5.2.7.7.7a.71.71,0,0,0,.6-.3,2.66,2.66,0,0,0,.3-1.2Z"/><rect class="cls-1" x="101.08" y="58.8" width="1.9" height="7.6"/><path class="cls-1" d="M107.18,58.8h2.2a8.52,8.52,0,0,1,2.3.3,2.36,2.36,0,0,1,1.4,1.2,3.65,3.65,0,0,1,.5,2.3,5.4,5.4,0,0,1-.3,1.8,3.81,3.81,0,0,1-.9,1.3,2.73,2.73,0,0,1-1.2.6,8.81,8.81,0,0,1-1.7.2h-2.4V58.8Zm2.1,1.3v5h.3a3.59,3.59,0,0,0,1.1-.2,1.56,1.56,0,0,0,.6-.8,3,3,0,0,0,.2-1.6,5.9,5.9,0,0,0-.2-1.4,1.41,1.41,0,0,0-.6-.7,3.55,3.55,0,0,0-1-.2Z"/><path class="cls-1" d="M114.88,60.8h1.7v1.4a1.68,1.68,0,0,1,1.7-1.4h.3v1.6h-.3c-.9,0-1.4.6-1.4,1.7v2.4H115V60.8Z"/><path class="cls-1" d="M119.08,60.8H121v3.6a1.63,1.63,0,0,0,.09.7.79.79,0,0,0,.5.2.72.72,0,0,0,.6-.2.52.52,0,0,0,.2-.4v-4h1.9v5.6h-1.8v-.8a1.78,1.78,0,0,1-.8.7,3.55,3.55,0,0,1-1,.2,3.59,3.59,0,0,1-1.1-.2,1.47,1.47,0,0,1-.5-.6,4.87,4.87,0,0,1-.1-1.2Z"/><path class="cls-1" d="M131.68,59.8v1h-.4a.75.75,0,0,0-.7.5,1.54,1.54,0,0,1,.2,2.1,1.38,1.38,0,0,1-.4.3,3.74,3.74,0,0,1-1.8.5,2.77,2.77,0,0,1-.9-.1c-.3.1-.5.3-.5.5s.1.2.2.3a6.6,6.6,0,0,0,1.4.1,8.75,8.75,0,0,1,1.6.2,2,2,0,0,1,.9.5,1.21,1.21,0,0,1,.3,1c0,1.3-1.1,1.9-3.4,1.9-1.9,0-2.8-.4-2.8-1.3,0-.5.4-.9,1.1-1.1a1.13,1.13,0,0,1-.9-1c0-.4.4-.9,1.2-1.2a1.58,1.58,0,0,1-1-1.9,1.56,1.56,0,0,1,.6-.8,4.14,4.14,0,0,1,1.9-.5,7.72,7.72,0,0,1,1.5.2,1.22,1.22,0,0,1,.4-.9,1,1,0,0,1,.9-.2,1.27,1.27,0,0,1,.6-.1m-4.1,6.3c-.4.2-.59.4-.59.7s.5.6,1.59.6c.91,0,1.41-.2,1.41-.6a.4.4,0,0,0-.2-.4.52.52,0,0,0-.4-.2,4.59,4.59,0,0,1-1-.1h-.81m1.5-3.7c0-.6-.19-.9-.59-.9a.74.74,0,0,0-.5.2,1.85,1.85,0,0,0-.2.7c0,.6.2.9.7.9a.79.79,0,0,0,.5-.2c0-.3.09-.5.09-.7"/><path class="cls-1" d="M136.68,58.8h2.1l2.7,7.6h-2.1l-.5-1.6h-2.7l-.4,1.6h-1.9Zm1.8,4.7-.9-3.1-.9,3.1Z"/><path class="cls-1" d="M146.58,62.1l-1.4.3a1,1,0,0,0-1-.8c-.4,0-.6.2-.6.5a.52.52,0,0,0,.2.4,1.61,1.61,0,0,0,.9.3,5.46,5.46,0,0,1,1.2.4,1,1,0,0,1,.6.5,1.14,1.14,0,0,1,.3.8,1.71,1.71,0,0,1-.7,1.3,2.6,2.6,0,0,1-1.9.5c-1.5,0-2.4-.6-2.6-1.7l1.5-.2a1,1,0,0,0,1.1.8c.5,0,.81-.2.81-.5a.52.52,0,0,0-.2-.4,3.18,3.18,0,0,0-.9-.3,3,3,0,0,1-1.6-.8,1.28,1.28,0,0,1-.4-1,1.45,1.45,0,0,1,.69-1.3,3.46,3.46,0,0,1,1.81-.5,2.72,2.72,0,0,1,2.19,1.7"/><path class="cls-1" d="M152.28,62.1l-1.4.3a1,1,0,0,0-1-.8c-.4,0-.6.2-.6.5a.52.52,0,0,0,.2.4,1.61,1.61,0,0,0,.9.3,5.64,5.64,0,0,1,1.2.4,1,1,0,0,1,.6.5,1.14,1.14,0,0,1,.3.8,1.71,1.71,0,0,1-.7,1.3,2.62,2.62,0,0,1-1.9.5c-1.6,0-2.4-.6-2.6-1.7l1.5-.2a1,1,0,0,0,1.1.8c.5,0,.8-.2.8-.5a.55.55,0,0,0-.19-.4,3.24,3.24,0,0,0-.91-.3,3.05,3.05,0,0,1-1.59-.8,1.26,1.26,0,0,1-.41-1,1.74,1.74,0,0,1,.7-1.3,3.37,3.37,0,0,1,1.7-.5,2.73,2.73,0,0,1,2.3,1.7"/><path class="cls-1" d="M158.78,63.6c0,2-.9,3-2.8,3s-2.8-1-2.8-3,.9-3,2.8-3,2.8,1,2.8,3m-2,0a3.89,3.89,0,0,0-.2-1.5.61.61,0,0,0-.59-.4.54.54,0,0,0-.6.4,5.73,5.73,0,0,0,0,3,.66.66,0,0,0,.69.4.75.75,0,0,0,.7-.4V63.6"/><path class="cls-1" d="M165,62.8l-1.8.1a2.35,2.35,0,0,0-.2-.8.6.6,0,0,0-.6-.3c-.7,0-1,.6-1,1.7a3.4,3.4,0,0,0,.2,1.4.67.67,0,0,0,.7.4c.5,0,.8-.3.8-1l1.8.1a2.36,2.36,0,0,1-2.7,2.2,3.15,3.15,0,0,1-2-5.1,3.25,3.25,0,0,1,2.1-.8c1.7-.1,2.6.7,2.7,2.1"/><path class="cls-1" d="M168,60.3h-2V58.7h2Zm-2,.5h1.9v5.6H166Z"/><path class="cls-1" d="M171.18,62.5l-1.8-.2a2,2,0,0,1,.9-1.3,4.14,4.14,0,0,1,1.9-.5,4.53,4.53,0,0,1,1.6.3,1.21,1.21,0,0,1,.7.7,5,5,0,0,1,.2,1.2V65a6.15,6.15,0,0,0,.1,1.3H173a2.77,2.77,0,0,1-.1-.9,2.35,2.35,0,0,1-3.2.6,1.66,1.66,0,0,1-.5-1.2,1.76,1.76,0,0,1,.8-1.5,6.71,6.71,0,0,1,2.8-.6v-.2a2.2,2.2,0,0,0-.1-.8c-.1-.2-.3-.2-.5-.2a1.08,1.08,0,0,0-1,1m1.5,1.2a2.59,2.59,0,0,0-1.19.3.84.84,0,0,0-.31.8c0,.5.2.7.6.7a.6.6,0,0,0,.6-.3,2.66,2.66,0,0,0,.3-1.2Z"/><path class="cls-1" d="M176.28,59h1.9v1.8h1.3V62h-1.3v2.9c0,.1.1.2.2.3a1.27,1.27,0,0,0,.6.1h.6v1.2a4.79,4.79,0,0,1-1.19.1,3.53,3.53,0,0,1-1.4-.3,1.06,1.06,0,0,1-.6-.7,5.2,5.2,0,0,1-.11-1.3V62h-.8V60.8h.8Z"/><path class="cls-1" d="M182.28,60.3h-2V58.7h2Zm-2,.5h1.9v5.6h-1.9Z"/><path class="cls-1" d="M189,63.6c0,2-.9,3-2.8,3s-2.8-1-2.8-3,.9-3,2.8-3,2.8,1,2.8,3m-2,0a3.89,3.89,0,0,0-.2-1.5.61.61,0,0,0-.6-.4.55.55,0,0,0-.6.4,5.73,5.73,0,0,0,0,3,.67.67,0,0,0,.7.4.55.55,0,0,0,.6-.4,7.57,7.57,0,0,0,.1-1.5"/><path class="cls-1" d="M190.08,60.8h1.81v.7a1.75,1.75,0,0,1,1.69-.9,3.66,3.66,0,0,1,1.11.2,1.17,1.17,0,0,1,.6.6,4.87,4.87,0,0,1,.1,1.2v3.7h-1.9V62.6a1,1,0,0,0-.2-.7.75.75,0,0,0-.5-.1.91.91,0,0,0-.7.3,3.55,3.55,0,0,0-.2,1v3.3H190Z"/><path class="cls-1" d="M192.68,0A2.68,2.68,0,0,1,195,1.2a4.39,4.39,0,0,1,.9,2.7,4.55,4.55,0,0,1-.5,2,3.33,3.33,0,0,1-1.2,1.4,3,3,0,0,1-1.6.5,2.68,2.68,0,0,1-2.3-1.2,4.39,4.39,0,0,1-.9-2.7,4.55,4.55,0,0,1,.5-2,3.33,3.33,0,0,1,1.2-1.4,3.32,3.32,0,0,1,1.6-.5m0,.6a2.28,2.28,0,0,0-1.9,1,3.41,3.41,0,0,0-.7,2.2,4.08,4.08,0,0,0,.81,2.4,2.13,2.13,0,0,0,1.8.9,2.24,2.24,0,0,0,1.89-1,2.89,2.89,0,0,0,.7-2.2,4.07,4.07,0,0,0-.8-2.4,2.81,2.81,0,0,0-1.8-.9m-1.4,5.5V1.9h1.2a2.77,2.77,0,0,1,.9.1.78.78,0,0,1,.4.4,1.42,1.42,0,0,1,.2.6,1.14,1.14,0,0,1-.3.8,1.61,1.61,0,0,1-.7.4c.1.1.2.1.3.2a3.51,3.51,0,0,1,.5.8l.4.8h-.7l-.3-.7a2.07,2.07,0,0,0-.6-1,.76.76,0,0,0-.5-.2h-.3V5.9h-.5Zm.61-2.4h.69c.2,0,.5,0,.61-.2a.76.76,0,0,0,.2-.5.56.56,0,0,0-.11-.4c-.1-.1-.1-.2-.2-.2s-.39-.1-.5-.1H192Z"/><path class="cls-2" d="M6.07,147.29l1.12.19a5.56,5.56,0,0,1-1.57,2.72,3.37,3.37,0,0,1-2.26.9A3,3,0,0,1,.93,150,5.06,5.06,0,0,1,0,146.67a7.67,7.67,0,0,1,1.17-4.33,3.77,3.77,0,0,1,3.26-1.93,3,3,0,0,1,2.16.85,3.68,3.68,0,0,1,1,2.4l-1.06.13c-.22-1.49-.9-2.24-2-2.24a2.76,2.76,0,0,0-2.42,1.53,6.91,6.91,0,0,0-.92,3.62,3.9,3.9,0,0,0,.65,2.44,2,2,0,0,0,1.66.82A2.13,2.13,0,0,0,5,149.34a4.12,4.12,0,0,0,1.11-2.05"/><path class="cls-2" d="M8.06,148.09A6.11,6.11,0,0,1,9,144.66a2.79,2.79,0,0,1,2.44-1.39,2.2,2.2,0,0,1,1.77.82,3.48,3.48,0,0,1,.7,2.34,6.3,6.3,0,0,1-.47,2.48,3.82,3.82,0,0,1-1.24,1.64,2.62,2.62,0,0,1-1.59.55,2.31,2.31,0,0,1-1.81-.81,3.25,3.25,0,0,1-.71-2.2M9.12,148a2.62,2.62,0,0,0,.42,1.61,1.29,1.29,0,0,0,1.06.54,1.62,1.62,0,0,0,1-.41,3.24,3.24,0,0,0,.87-1.34,5.13,5.13,0,0,0,.37-1.93,2.63,2.63,0,0,0-.42-1.62,1.27,1.27,0,0,0-1-.56,1.67,1.67,0,0,0-1.05.4A3,3,0,0,0,9.46,146a5.55,5.55,0,0,0-.34,2"/><path class="cls-2" d="M14.47,150.93l1.28-7.5h1l-.21,1.31a4.82,4.82,0,0,1,1.22-1.15,2.05,2.05,0,0,1,1.06-.32,1.53,1.53,0,0,1,1.17.48,1.93,1.93,0,0,1,.45,1.37,8.15,8.15,0,0,1-.17,1.28l-.82,4.53H18.36l.86-4.75a7.06,7.06,0,0,0,.13-1,.82.82,0,0,0-.23-.61.83.83,0,0,0-.61-.22,1.92,1.92,0,0,0-1.45.7,4.9,4.9,0,0,0-.94,2.42l-.6,3.49Z"/><path class="cls-2" d="M21.06,150.93l1.29-7.5h1l-.22,1.31a5,5,0,0,1,1.22-1.15,2.09,2.09,0,0,1,1.07-.32,1.53,1.53,0,0,1,1.17.48,2,2,0,0,1,.44,1.37,7.82,7.82,0,0,1-.16,1.28L26,150.93H25l.86-4.75a5.88,5.88,0,0,0,.13-1,.78.78,0,0,0-.84-.83,1.91,1.91,0,0,0-1.44.7,4.8,4.8,0,0,0-.94,2.42l-.6,3.49Z"/><path class="cls-2" d="M32.18,148.38l1,.13a3.54,3.54,0,0,1-1.18,1.9,2.5,2.5,0,0,1-1.72.69,2.14,2.14,0,0,1-1.22-.37,2.46,2.46,0,0,1-.88-1.08,4.34,4.34,0,0,1-.32-1.73,6,6,0,0,1,.5-2.46,3.88,3.88,0,0,1,1.22-1.67,2.58,2.58,0,0,1,1.56-.53,2.16,2.16,0,0,1,1.74.81,3.52,3.52,0,0,1,.67,2.3,8.79,8.79,0,0,1-.07,1.13H29a3,3,0,0,0,0,.4,2.68,2.68,0,0,0,.41,1.6,1.18,1.18,0,0,0,1,.54,1.69,1.69,0,0,0,1.06-.42,2.74,2.74,0,0,0,.81-1.24m-3.06-1.86h3.47v-.26a2.45,2.45,0,0,0-.4-1.51,1.24,1.24,0,0,0-1-.5,1.67,1.67,0,0,0-1.22.57,3.66,3.66,0,0,0-.84,1.7"/><path class="cls-2" d="M38.5,148.19l1,.14a4.46,4.46,0,0,1-1.13,2.09,2.34,2.34,0,0,1-1.63.68,2,2,0,0,1-1.62-.77,3.45,3.45,0,0,1-.63-2.23,6.85,6.85,0,0,1,.47-2.61,3.81,3.81,0,0,1,1.18-1.7,2.63,2.63,0,0,1,1.59-.52,2,2,0,0,1,1.55.66,2.56,2.56,0,0,1,.59,1.82l-1,.08a1.63,1.63,0,0,0-.34-1.12,1.09,1.09,0,0,0-.85-.39,1.51,1.51,0,0,0-1,.37,3,3,0,0,0-.78,1.37,7,7,0,0,0-.33,2.21,2.22,2.22,0,0,0,.36,1.37,1,1,0,0,0,.85.47,1.39,1.39,0,0,0,1-.47,3.33,3.33,0,0,0,.73-1.45"/><path class="cls-2" d="M42.52,149.9l-.18,1a2.19,2.19,0,0,1-.7.12,1.25,1.25,0,0,1-.9-.31,1.06,1.06,0,0,1-.34-.84,10.67,10.67,0,0,1,.16-1.14l.74-4.35h-.83l.17-1h.83l.31-1.8,1.2-.88-.46,2.68h1l-.17,1h-1l-.7,4.14c-.09.53-.14.85-.14.95a.53.53,0,0,0,.11.36A.44.44,0,0,0,42,150a1.71,1.71,0,0,0,.57-.08"/><path class="cls-2" d="M43.45,150.93l1.28-7.5h1.06l-1.29,7.5ZM45,142l.25-1.45h1.05L46,142Z"/><path class="cls-2" d="M46.12,150.93l1.28-7.5h1l-.22,1.31a4.82,4.82,0,0,1,1.22-1.15,2.05,2.05,0,0,1,1.06-.32,1.52,1.52,0,0,1,1.17.48,1.93,1.93,0,0,1,.45,1.37,8.15,8.15,0,0,1-.17,1.28l-.82,4.53H50l.86-4.75a7.06,7.06,0,0,0,.13-1,.78.78,0,0,0-.84-.83,1.92,1.92,0,0,0-1.45.7,5,5,0,0,0-.94,2.42l-.6,3.49Z"/><path class="cls-2" d="M52.66,151.61l1.06.12v.17a1,1,0,0,0,.27.74,1.28,1.28,0,0,0,.86.24,1.59,1.59,0,0,0,1.34-.55,5.32,5.32,0,0,0,.53-1.8l.1-.62a2.26,2.26,0,0,1-1.73,1,1.88,1.88,0,0,1-1.54-.82,3.79,3.79,0,0,1-.64-2.38,5.7,5.7,0,0,1,.48-2.32,4.11,4.11,0,0,1,1.16-1.61,2.19,2.19,0,0,1,1.37-.54,2,2,0,0,1,1.83,1.4l.19-1.23h1l-1.12,7.24a5.33,5.33,0,0,1-.86,2.36,2.35,2.35,0,0,1-2,.91,2.62,2.62,0,0,1-1.76-.52,1.85,1.85,0,0,1-.58-1.43,2.75,2.75,0,0,1,0-.38m1.31-4a3.81,3.81,0,0,0,.17,1.31,1.62,1.62,0,0,0,.49.72,1,1,0,0,0,.65.24,1.5,1.5,0,0,0,.94-.39,3.05,3.05,0,0,0,.83-1.31,5.24,5.24,0,0,0,.34-1.87,2.35,2.35,0,0,0-.42-1.48,1.25,1.25,0,0,0-1-.53,1.39,1.39,0,0,0-.95.43,3.15,3.15,0,0,0-.76,1.33,4.9,4.9,0,0,0-.29,1.55"/><path class="cls-2" d="M62.79,150.93l1.77-10.35h3.55a2.84,2.84,0,0,1,1.36.25,1.94,1.94,0,0,1,.76.87,3.06,3.06,0,0,1,.32,1.42,4.09,4.09,0,0,1-.51,2,2.64,2.64,0,0,1-1.31,1.27,4.89,4.89,0,0,1-2,.35H64.65l-.72,4.2Zm2.06-5.37h1.86a3.54,3.54,0,0,0,1.53-.26,1.94,1.94,0,0,0,.84-.84,2.53,2.53,0,0,0,.35-1.3,1.75,1.75,0,0,0-.18-.86,1,1,0,0,0-.48-.46,3,3,0,0,0-1.09-.14H65.51Z"/><path class="cls-2" d="M75,148.38l1,.13a3.54,3.54,0,0,1-1.18,1.9,2.5,2.5,0,0,1-1.72.69,2.11,2.11,0,0,1-1.22-.37,2.46,2.46,0,0,1-.88-1.08,4.34,4.34,0,0,1-.32-1.73,6,6,0,0,1,.5-2.46,4,4,0,0,1,1.21-1.67,2.63,2.63,0,0,1,1.57-.53,2.16,2.16,0,0,1,1.74.81,3.52,3.52,0,0,1,.67,2.3,7.33,7.33,0,0,1-.08,1.13H71.81c0,.15,0,.28,0,.4a2.68,2.68,0,0,0,.41,1.6,1.17,1.17,0,0,0,1,.54,1.69,1.69,0,0,0,1.06-.42,2.91,2.91,0,0,0,.81-1.24M72,146.52h3.46v-.26a2.45,2.45,0,0,0-.39-1.51,1.25,1.25,0,0,0-1-.5,1.69,1.69,0,0,0-1.23.57,3.75,3.75,0,0,0-.83,1.7"/><path class="cls-2" d="M77.3,148.09a6.19,6.19,0,0,1,.91-3.43,2.79,2.79,0,0,1,2.45-1.39,2.23,2.23,0,0,1,1.77.82,3.53,3.53,0,0,1,.7,2.34,6.13,6.13,0,0,1-.48,2.48,3.82,3.82,0,0,1-1.24,1.64,2.62,2.62,0,0,1-1.59.55,2.31,2.31,0,0,1-1.81-.81,3.25,3.25,0,0,1-.71-2.2m1.06-.13a2.62,2.62,0,0,0,.42,1.61,1.29,1.29,0,0,0,1.06.54,1.62,1.62,0,0,0,1-.41,3.24,3.24,0,0,0,.87-1.34,5.14,5.14,0,0,0,.38-1.93,2.63,2.63,0,0,0-.43-1.62,1.27,1.27,0,0,0-1-.56,1.67,1.67,0,0,0-1.05.4,3,3,0,0,0-.86,1.34,5.34,5.34,0,0,0-.35,2"/><path class="cls-2" d="M83.19,153.81,85,143.43h1l-.18,1a3.91,3.91,0,0,1,1-1,1.67,1.67,0,0,1,.88-.26,1.76,1.76,0,0,1,1.44.77,3.7,3.7,0,0,1,.58,2.25,6.7,6.7,0,0,1-.47,2.55,4.39,4.39,0,0,1-1.26,1.78,2,2,0,0,1-1.26.49q-1.11,0-1.71-1.38l-.7,4.09Zm2.08-5.7a2.31,2.31,0,0,0,.38,1.44,1.15,1.15,0,0,0,1,.49,1.19,1.19,0,0,0,.8-.3,3.44,3.44,0,0,0,.84-1.44,6,6,0,0,0,.36-2,2.37,2.37,0,0,0-.38-1.46,1.13,1.13,0,0,0-.93-.52,1.37,1.37,0,0,0-.88.4,3.18,3.18,0,0,0-.8,1.37,5.93,5.93,0,0,0-.35,2.05"/><polygon class="cls-2" points="90.22 150.93 91.99 140.58 93.05 140.58 91.28 150.93 90.22 150.93"/><path class="cls-2" d="M97.46,148.38l1,.13a3.54,3.54,0,0,1-1.18,1.9,2.5,2.5,0,0,1-1.72.69,2.14,2.14,0,0,1-1.22-.37,2.46,2.46,0,0,1-.88-1.08,4.34,4.34,0,0,1-.32-1.73,6,6,0,0,1,.5-2.46,4,4,0,0,1,1.21-1.67,2.63,2.63,0,0,1,1.57-.53,2.16,2.16,0,0,1,1.74.81,3.52,3.52,0,0,1,.67,2.3,7.33,7.33,0,0,1-.08,1.13H94.23c0,.15,0,.28,0,.4a2.68,2.68,0,0,0,.41,1.6,1.18,1.18,0,0,0,1,.54,1.69,1.69,0,0,0,1.06-.42,2.83,2.83,0,0,0,.81-1.24m-3.06-1.86h3.47v-.26a2.45,2.45,0,0,0-.4-1.51,1.25,1.25,0,0,0-1-.5,1.66,1.66,0,0,0-1.21.57,3.57,3.57,0,0,0-.84,1.7"/><path class="cls-2" d="M99.8,150.93l.25-1.44h1.19l-.21,1.26q-.36,2.1-1.59,2.28l.09-.56c.46-.16.77-.67.92-1.54Z"/><path class="cls-2" d="M106.58,147.58l1.11-.13v.35A2.6,2.6,0,0,0,108,149a1.52,1.52,0,0,0,.72.67,2.64,2.64,0,0,0,1.21.26,2.19,2.19,0,0,0,1.53-.51,1.65,1.65,0,0,0,.57-1.28,1.39,1.39,0,0,0-.33-.93,5.93,5.93,0,0,0-1.55-1,11,11,0,0,1-1.29-.76,3,3,0,0,1-.89-1,2.61,2.61,0,0,1-.3-1.26,2.67,2.67,0,0,1,.8-2,3,3,0,0,1,2.18-.76,3.41,3.41,0,0,1,1.63.36,2.6,2.6,0,0,1,1.08,1,2.86,2.86,0,0,1,.4,1.48v.22l-1.11.11v-.24a1.8,1.8,0,0,0-.25-.93,1.73,1.73,0,0,0-.72-.67,2.31,2.31,0,0,0-1.07-.24,2,2,0,0,0-1.36.43,1.41,1.41,0,0,0-.48,1.12,1.25,1.25,0,0,0,.36,1,9.93,9.93,0,0,0,1.8,1.11,7.81,7.81,0,0,1,1.44.93,2.55,2.55,0,0,1,.59.85,2.9,2.9,0,0,1,.21,1.12,2.86,2.86,0,0,1-.91,2.17,3.33,3.33,0,0,1-2.4.86,3.21,3.21,0,0,1-2.42-.85,3.74,3.74,0,0,1-.84-2.67"/><path class="cls-2" d="M118.28,148.19l1,.14a4.55,4.55,0,0,1-1.13,2.09,2.36,2.36,0,0,1-1.64.68,2,2,0,0,1-1.61-.77,3.45,3.45,0,0,1-.64-2.23,7,7,0,0,1,.47-2.61,3.82,3.82,0,0,1,1.19-1.7,2.61,2.61,0,0,1,1.59-.52,2,2,0,0,1,1.54.66,2.61,2.61,0,0,1,.6,1.82l-1,.08a1.63,1.63,0,0,0-.34-1.12,1.08,1.08,0,0,0-.84-.39,1.54,1.54,0,0,0-1,.37,3,3,0,0,0-.78,1.37,7.28,7.28,0,0,0-.32,2.21,2.29,2.29,0,0,0,.35,1.37,1,1,0,0,0,.86.47,1.39,1.39,0,0,0,1-.47,3.23,3.23,0,0,0,.73-1.45"/><path class="cls-2" d="M119.93,150.93l1.29-7.5h1l-1.28,7.5Zm1.53-8.9.24-1.45h1.06l-.25,1.45Z"/><path class="cls-2" d="M127.12,148.38l1,.13a3.54,3.54,0,0,1-1.18,1.9,2.53,2.53,0,0,1-1.72.69,2.09,2.09,0,0,1-1.22-.37,2.46,2.46,0,0,1-.88-1.08,4.17,4.17,0,0,1-.33-1.73,6.11,6.11,0,0,1,.5-2.46,4,4,0,0,1,1.22-1.67,2.6,2.6,0,0,1,1.56-.53,2.16,2.16,0,0,1,1.74.81,3.52,3.52,0,0,1,.68,2.3,8.83,8.83,0,0,1-.08,1.13H123.9c0,.15,0,.28,0,.4a2.68,2.68,0,0,0,.4,1.6,1.2,1.2,0,0,0,1,.54,1.66,1.66,0,0,0,1.06-.42,2.74,2.74,0,0,0,.81-1.24m-3.05-1.86h3.46v-.26a2.45,2.45,0,0,0-.39-1.51,1.27,1.27,0,0,0-1-.5,1.68,1.68,0,0,0-1.22.57,3.56,3.56,0,0,0-.83,1.7"/><path class="cls-2" d="M129.2,150.93l1.28-7.5h1l-.22,1.31a5,5,0,0,1,1.22-1.15,2.06,2.06,0,0,1,1.07-.32,1.49,1.49,0,0,1,1.16.48,1.93,1.93,0,0,1,.45,1.37,7.82,7.82,0,0,1-.16,1.28l-.83,4.53h-1l.86-4.75a5.88,5.88,0,0,0,.13-1,.78.78,0,0,0-.84-.83,1.9,1.9,0,0,0-1.44.7,4.8,4.8,0,0,0-.94,2.42l-.6,3.49Z"/><path class="cls-2" d="M140,148.19l1.05.14a4.55,4.55,0,0,1-1.13,2.09,2.38,2.38,0,0,1-1.64.68,2,2,0,0,1-1.61-.77,3.39,3.39,0,0,1-.64-2.23,6.85,6.85,0,0,1,.47-2.61,3.89,3.89,0,0,1,1.18-1.7,2.64,2.64,0,0,1,1.6-.52,2,2,0,0,1,1.54.66,2.56,2.56,0,0,1,.59,1.82l-1,.08a1.63,1.63,0,0,0-.34-1.12,1.08,1.08,0,0,0-.84-.39,1.54,1.54,0,0,0-1,.37,3,3,0,0,0-.78,1.37,7,7,0,0,0-.33,2.21,2.22,2.22,0,0,0,.36,1.37,1,1,0,0,0,.85.47,1.39,1.39,0,0,0,1-.47,3.33,3.33,0,0,0,.73-1.45"/><path class="cls-2" d="M146.25,148.38l1,.13a3.54,3.54,0,0,1-1.18,1.9,2.49,2.49,0,0,1-1.71.69,2.14,2.14,0,0,1-1.23-.37,2.46,2.46,0,0,1-.88-1.08,4.34,4.34,0,0,1-.32-1.73,6.11,6.11,0,0,1,.5-2.46,4,4,0,0,1,1.22-1.67,2.58,2.58,0,0,1,1.56-.53,2.16,2.16,0,0,1,1.74.81,3.52,3.52,0,0,1,.67,2.3,8.79,8.79,0,0,1-.07,1.13H143c0,.15,0,.28,0,.4a2.68,2.68,0,0,0,.41,1.6,1.18,1.18,0,0,0,1,.54,1.69,1.69,0,0,0,1.06-.42,2.74,2.74,0,0,0,.81-1.24m-3.06-1.86h3.46v-.26a2.45,2.45,0,0,0-.39-1.51,1.25,1.25,0,0,0-1-.5,1.67,1.67,0,0,0-1.22.57,3.66,3.66,0,0,0-.84,1.7"/><path class="cls-2" d="M155.77,150a4,4,0,0,1-1.09.85,2.27,2.27,0,0,1-1,.25,1.79,1.79,0,0,1-1.36-.59,2.25,2.25,0,0,1-.54-1.59,2.46,2.46,0,0,1,.32-1.26,2.08,2.08,0,0,1,.89-.82,4.34,4.34,0,0,1,1.64-.34c.6,0,1-.07,1.24-.1a2.12,2.12,0,0,0,.57-.18,3.3,3.3,0,0,0,.15-.87.93.93,0,0,0-.35-.75,1.62,1.62,0,0,0-1-.28,1.69,1.69,0,0,0-1.76,1.36l-1.07-.11a2.83,2.83,0,0,1,2.89-2.3,2.5,2.5,0,0,1,1.73.56,1.85,1.85,0,0,1,.63,1.43,6.31,6.31,0,0,1-.17,1.39l-.4,1.85a7.07,7.07,0,0,0-.2,1.44,5.43,5.43,0,0,0,.12,1h-1.07a4.93,4.93,0,0,1-.11-.93m.46-2.87a4.58,4.58,0,0,1-1.34.28,5,5,0,0,0-1.32.26,1.18,1.18,0,0,0-.56.47,1.3,1.3,0,0,0-.2.74,1.21,1.21,0,0,0,.32.9,1.13,1.13,0,0,0,.85.33,1.72,1.72,0,0,0,1-.31,2.26,2.26,0,0,0,.76-.9,6.6,6.6,0,0,0,.51-1.77"/><path class="cls-2" d="M158.22,150.93l1.28-7.5h1l-.22,1.31a4.82,4.82,0,0,1,1.22-1.15,2.05,2.05,0,0,1,1.06-.32,1.53,1.53,0,0,1,1.17.48,1.93,1.93,0,0,1,.45,1.37,8.15,8.15,0,0,1-.17,1.28l-.82,4.53h-1l.86-4.75a7.06,7.06,0,0,0,.13-1,.78.78,0,0,0-.84-.83,1.88,1.88,0,0,0-1.44.7,4.8,4.8,0,0,0-.95,2.42l-.6,3.49Z"/><path class="cls-2" d="M169,149.84a2.43,2.43,0,0,1-1.88,1.26,1.79,1.79,0,0,1-1.45-.77,3.8,3.8,0,0,1-.59-2.31,6.43,6.43,0,0,1,.48-2.52,4,4,0,0,1,1.17-1.69,2.28,2.28,0,0,1,1.39-.54,1.85,1.85,0,0,1,1.73,1.35l.73-4h1l-1.84,10.35h-1Zm-2.88-2.05v.3a2.61,2.61,0,0,0,.43,1.53,1.06,1.06,0,0,0,.89.45,1.64,1.64,0,0,0,1.3-.9,5.32,5.32,0,0,0,.77-3,2.22,2.22,0,0,0-.39-1.4,1.2,1.2,0,0,0-1-.49,1.4,1.4,0,0,0-1,.47,3.33,3.33,0,0,0-.76,1.42,5.73,5.73,0,0,0-.29,1.58"/><path class="cls-2" d="M174.89,150.93l1.77-10.35h3.52a4.11,4.11,0,0,1,1.65.25,1.61,1.61,0,0,1,.75.73,3.36,3.36,0,0,1,.33,1.54,3.08,3.08,0,0,1-.71,2.15,3.52,3.52,0,0,1-2.13,1,3.63,3.63,0,0,1,.73.88,10.17,10.17,0,0,1,.82,1.82l.64,2H181l-.6-1.93a10,10,0,0,0-.76-1.85,1.71,1.71,0,0,0-.57-.65,2.1,2.1,0,0,0-1-.16h-1.28l-.79,4.59Zm2.12-5.71h1.53a10.48,10.48,0,0,0,1.74-.1,1.9,1.9,0,0,0,.8-.37,2.15,2.15,0,0,0,.55-.71,2.32,2.32,0,0,0,.2-1,1.71,1.71,0,0,0-.17-.79,1.1,1.1,0,0,0-.43-.45,2.37,2.37,0,0,0-.91-.12H177.6Z"/><path class="cls-2" d="M187.79,148.38l1,.13a3.54,3.54,0,0,1-1.18,1.9,2.51,2.51,0,0,1-1.72.69,2.11,2.11,0,0,1-1.22-.37,2.46,2.46,0,0,1-.88-1.08,4.18,4.18,0,0,1-.32-1.73,6,6,0,0,1,.5-2.46,4,4,0,0,1,1.21-1.67,2.62,2.62,0,0,1,1.56-.53,2.17,2.17,0,0,1,1.75.81,3.52,3.52,0,0,1,.67,2.3,8.83,8.83,0,0,1-.08,1.13h-4.54c0,.15,0,.28,0,.4a2.76,2.76,0,0,0,.4,1.6,1.2,1.2,0,0,0,1,.54,1.69,1.69,0,0,0,1.06-.42,2.91,2.91,0,0,0,.81-1.24m-3.06-1.86h3.46v-.26a2.45,2.45,0,0,0-.39-1.51,1.26,1.26,0,0,0-1-.5,1.69,1.69,0,0,0-1.23.57,3.66,3.66,0,0,0-.83,1.7"/><path class="cls-2" d="M189.81,151.61l1.06.12v.17a1,1,0,0,0,.27.74,1.28,1.28,0,0,0,.86.24,1.59,1.59,0,0,0,1.34-.55,5.09,5.09,0,0,0,.53-1.8l.1-.62a2.26,2.26,0,0,1-1.73,1,1.88,1.88,0,0,1-1.54-.82,3.79,3.79,0,0,1-.64-2.38,5.7,5.7,0,0,1,.48-2.32,4.11,4.11,0,0,1,1.16-1.61,2.19,2.19,0,0,1,1.37-.54,2,2,0,0,1,1.83,1.4l.19-1.23h1l-1.13,7.24a5.22,5.22,0,0,1-.85,2.36,2.35,2.35,0,0,1-1.95.91,2.62,2.62,0,0,1-1.76-.52,1.81,1.81,0,0,1-.58-1.43,2.75,2.75,0,0,1,0-.38m1.3-4a3.78,3.78,0,0,0,.18,1.31,1.69,1.69,0,0,0,.48.72,1.07,1.07,0,0,0,.66.24,1.5,1.5,0,0,0,.94-.39,3,3,0,0,0,.82-1.31,5.25,5.25,0,0,0,.35-1.87,2.35,2.35,0,0,0-.42-1.48,1.25,1.25,0,0,0-1-.53,1.39,1.39,0,0,0-1,.43,3,3,0,0,0-.76,1.33,4.94,4.94,0,0,0-.3,1.55"/><path class="cls-2" d="M200.65,149.56a3,3,0,0,1-2.27,1.54,1.48,1.48,0,0,1-1.12-.48,1.73,1.73,0,0,1-.45-1.23,10.87,10.87,0,0,1,.19-1.63l.74-4.33h1.06l-.82,4.8a5.82,5.82,0,0,0-.11.92,1,1,0,0,0,.22.67.82.82,0,0,0,.61.22,1.76,1.76,0,0,0,1.11-.44,2.51,2.51,0,0,0,.82-1.13,11,11,0,0,0,.46-1.8l.59-3.24h1.06l-1.36,7.5h-1Z"/><polygon class="cls-2" points="202.97 150.93 204.74 140.58 205.8 140.58 204.03 150.93 202.97 150.93"/><path class="cls-2" d="M209.83,150a3.84,3.84,0,0,1-1.08.85,2.3,2.3,0,0,1-1,.25,1.77,1.77,0,0,1-1.36-.59,2.25,2.25,0,0,1-.54-1.59,2.36,2.36,0,0,1,.32-1.26,2,2,0,0,1,.89-.82,4.29,4.29,0,0,1,1.64-.34c.6,0,1-.07,1.23-.1a2.09,2.09,0,0,0,.58-.18,3.3,3.3,0,0,0,.15-.87.91.91,0,0,0-.36-.75,1.6,1.6,0,0,0-1-.28,1.7,1.7,0,0,0-1.76,1.36l-1.06-.11a2.82,2.82,0,0,1,2.89-2.3,2.48,2.48,0,0,1,1.72.56,1.83,1.83,0,0,1,.64,1.43,7,7,0,0,1-.17,1.39l-.41,1.85a7.7,7.7,0,0,0-.19,1.44,5.43,5.43,0,0,0,.12,1h-1.08a7.45,7.45,0,0,1-.11-.93m.46-2.87a4.5,4.5,0,0,1-1.33.28,5.06,5.06,0,0,0-1.33.26,1.23,1.23,0,0,0-.56.47,1.39,1.39,0,0,0-.2.74,1.25,1.25,0,0,0,.32.9,1.15,1.15,0,0,0,.86.33,1.71,1.71,0,0,0,1-.31,2.28,2.28,0,0,0,.77-.9,6.65,6.65,0,0,0,.5-1.77"/><path class="cls-2" d="M214.62,149.9l-.18,1a2.24,2.24,0,0,1-.7.12,1.29,1.29,0,0,1-.91-.31,1.09,1.09,0,0,1-.33-.84,8.46,8.46,0,0,1,.16-1.14l.74-4.35h-.83l.17-1h.83l.31-1.8,1.2-.88-.46,2.68h1l-.17,1h-1l-.71,4.14c-.09.53-.14.85-.14.95a.53.53,0,0,0,.11.36.41.41,0,0,0,.33.11,1.71,1.71,0,0,0,.57-.08"/><path class="cls-2" d="M215.55,150.93l1.28-7.5h1l-1.28,7.5Zm1.52-8.9.25-1.45h1.05l-.25,1.45Z"/><path class="cls-2" d="M218.41,148.09a6.11,6.11,0,0,1,.91-3.43,2.78,2.78,0,0,1,2.44-1.39,2.23,2.23,0,0,1,1.77.82,3.48,3.48,0,0,1,.7,2.34,6.13,6.13,0,0,1-.48,2.48,3.8,3.8,0,0,1-1.23,1.64,2.67,2.67,0,0,1-1.59.55,2.3,2.3,0,0,1-1.81-.81,3.2,3.2,0,0,1-.71-2.2m1.05-.13a2.55,2.55,0,0,0,.43,1.61,1.28,1.28,0,0,0,1.05.54,1.6,1.6,0,0,0,1-.41,3.15,3.15,0,0,0,.88-1.34,5.13,5.13,0,0,0,.37-1.93,2.63,2.63,0,0,0-.42-1.62,1.29,1.29,0,0,0-1.05-.56,1.67,1.67,0,0,0-1.05.4,3,3,0,0,0-.86,1.34,5.55,5.55,0,0,0-.35,2"/><path class="cls-2" d="M224.81,150.93l1.29-7.5h1l-.22,1.31a5,5,0,0,1,1.22-1.15,2.09,2.09,0,0,1,1.07-.32,1.49,1.49,0,0,1,1.16.48,1.93,1.93,0,0,1,.45,1.37,7.82,7.82,0,0,1-.16,1.28l-.83,4.53H228.7l.86-4.75a5.88,5.88,0,0,0,.13-1,.78.78,0,0,0-.23-.61.82.82,0,0,0-.61-.22,1.9,1.9,0,0,0-1.44.7,4.8,4.8,0,0,0-.94,2.42l-.6,3.49Z"/><path class="cls-2" d="M236.44,137.42a2.79,2.79,0,0,1,2.28,1.17,4.32,4.32,0,0,1,.92,2.74,4.49,4.49,0,0,1-.45,2,3.64,3.64,0,0,1-1.2,1.41,2.76,2.76,0,0,1-3.83-.68,4.26,4.26,0,0,1-.92-2.74,4.49,4.49,0,0,1,.45-2,3.55,3.55,0,0,1,1.19-1.41,2.76,2.76,0,0,1,1.56-.49m0,.65a2.35,2.35,0,0,0-1.93,1,3.56,3.56,0,0,0-.74,2.25,3.47,3.47,0,0,0,.84,2.37,2.33,2.33,0,0,0,3.76-.13,3.76,3.76,0,0,0-.1-4.61,2.35,2.35,0,0,0-1.83-.89m-1.4,5.42v-4.2h1.18a2.27,2.27,0,0,1,.87.11,1,1,0,0,1,.43.39,1.32,1.32,0,0,1-.1,1.45,1,1,0,0,1-.71.37,1,1,0,0,1,.31.24,4.17,4.17,0,0,1,.49.82l.41.82h-.67l-.31-.66a3.7,3.7,0,0,0-.56-1,.66.66,0,0,0-.46-.16h-.32v1.79Zm.56-2.37h.67a1,1,0,0,0,.64-.16.59.59,0,0,0,.19-.48.68.68,0,0,0-.09-.35.56.56,0,0,0-.25-.21,1.65,1.65,0,0,0-.54-.06h-.62Z"/></svg>